<svg width="25" height="24" viewBox="0 0 25 24" fill="none" xmlns="http://www.w3.org/2000/svg">
<path d="M20.5 0H4.5C2.29086 0 0.5 1.79086 0.5 4V20C0.5 22.2091 2.29086 24 4.5 24H20.5C22.7091 24 24.5 22.2091 24.5 20V4C24.5 1.79086 22.7091 0 20.5 0Z" fill="#EA4C89"/>
<path d="M15.6699 16.631C15.4413 15.3247 15.086 14.0438 14.6092 12.8064C15.5889 12.6836 16.7185 12.7127 18.031 12.9522C17.9022 13.6917 17.627 14.398 17.2215 15.0297C16.8161 15.6614 16.2886 16.2058 15.6699 16.631ZM9.09479 16.4575C10.0417 15.0297 11.364 13.6183 13.5081 13.0249C14.041 14.3667 14.4207 15.7645 14.6401 17.1916C13.9608 17.4693 13.2341 17.6126 12.5003 17.6135C11.2686 17.6147 10.0712 17.2082 9.09479 16.4575ZM6.88838 12.0002V11.8206H6.92166C8.92088 11.8206 10.9098 11.6861 12.6873 11.1644C12.8167 11.433 12.9517 11.7077 13.0735 11.9931C10.7331 12.6827 9.27151 14.2221 8.27494 15.6888C7.37796 14.6697 6.88478 13.3577 6.88838 12.0002ZM10.0857 6.93158C10.8524 7.95722 11.5467 9.03498 12.1637 10.1571C10.5845 10.5888 8.82057 10.706 7.03979 10.7116C7.23479 9.89481 7.60935 9.13175 8.13624 8.47789C8.66312 7.82403 9.32909 7.29579 10.0857 6.93158ZM16.1326 7.72846C15.3432 8.69174 14.3514 9.35221 13.2264 9.80033C12.6161 8.67177 11.9318 7.58486 11.1779 6.54674C11.6109 6.44302 12.0545 6.39016 12.4998 6.38924C13.8323 6.38718 15.1217 6.86168 16.1349 7.72705L16.1326 7.72846ZM16.906 8.53143C17.6518 9.4769 18.0736 10.6372 18.1093 11.8408C16.5971 11.5778 15.2968 11.5661 14.1779 11.7471C14.0331 11.4222 13.8873 11.1021 13.7359 10.7946C14.941 10.3033 16.0224 9.58096 16.906 8.53143ZM12.4998 5.27783C11.1708 5.27783 9.87165 5.67189 8.7666 6.41019C7.66155 7.14849 6.80023 8.19788 6.29154 9.42566C5.78285 10.6534 5.64964 12.0045 5.90874 13.308C6.16784 14.6115 6.80763 15.8089 7.7472 16.7488C8.68678 17.6887 9.88395 18.3289 11.1873 18.5884C12.4907 18.848 13.8418 18.7152 15.0698 18.207C16.2978 17.6987 17.3474 16.8378 18.0861 15.733C18.8248 14.6282 19.2193 13.3292 19.2198 12.0002C19.22 11.1176 19.0464 10.2437 18.7088 9.42825C18.3711 8.61283 17.8762 7.87193 17.2521 7.24787C16.628 6.62381 15.8871 6.12883 15.0717 5.7912C14.2563 5.45358 13.3823 5.27993 12.4998 5.28018V5.27783Z" fill="white"/>
</svg>
